<svg width="24" height="24" viewBox="0 0 24 24" fill="none" xmlns="http://www.w3.org/2000/svg">
<g clip-path="url(#clip0_1_472)">
<path d="M15.7163 5.93582C15.4738 6.23905 15.523 6.6816 15.8262 6.92408L22.1713 12L15.8262 17.076C15.522 17.3193 15.4745 17.7619 15.7163 18.0643C15.9589 18.3675 16.4014 18.4167 16.7046 18.1741L23.7361 12.5491C23.9029 12.4156 24 12.2136 24 12C24 11.7864 23.9029 11.5844 23.7361 11.451L16.7046 5.82599C16.4014 5.58336 15.9589 5.63258 15.7163 5.93582ZM14.5018 12.5491C14.6685 12.4156 14.7656 12.2136 14.7656 12C14.7656 11.7864 14.6685 11.5844 14.5018 11.451L7.47052 5.82599C7.25944 5.6571 6.97031 5.62419 6.72666 5.74129C6.48305 5.85838 6.32812 6.10475 6.32812 6.37504L6.32812 8.48441L0.703125 8.48441C0.314812 8.48441 -1.36701e-07 8.79922 -1.53674e-07 9.18754L-3.99551e-07 14.8125C-4.16525e-07 15.2008 0.314811 15.5157 0.703125 15.5157L6.32812 15.5157L6.32812 17.625C6.32812 17.8953 6.48305 18.1416 6.72666 18.2588C6.97027 18.3759 7.25944 18.343 7.47052 18.1741L14.5018 12.5491ZM7.73437 14.8125C7.73437 14.4242 7.41956 14.1094 7.03125 14.1094L1.40625 14.1094L1.40625 9.89066L7.03125 9.89066C7.41956 9.89066 7.73437 9.57585 7.73437 9.18754L7.73437 7.83796L12.9369 12L7.73437 16.1621L7.73437 14.8125ZM19.0509 12.5491C19.2178 12.4156 19.3148 12.2136 19.3148 12C19.3148 11.7864 19.2178 11.5844 19.0509 11.451L12.0195 5.82599C11.7163 5.58336 11.2739 5.63258 11.0313 5.93582C10.7887 6.23905 10.8379 6.6816 11.1411 6.92408L17.4862 12L11.1411 17.076C10.8369 17.3193 10.7895 17.7619 11.0313 18.0643C11.2739 18.3675 11.7164 18.4167 12.0195 18.1741L19.0509 12.5491Z" fill="url(#paint0_linear_1_472)"/>
</g>
<defs>
<linearGradient id="paint0_linear_1_472" x1="24" y1="12" x2="-2.76613e-07" y2="12" gradientUnits="userSpaceOnUse">
<stop stop-color="#7E3CF6"/>
<stop offset="1" stop-color="#9D6CF6"/>
</linearGradient>
<clipPath id="clip0_1_472">
<rect width="24" height="24" fill="white" transform="translate(24) rotate(90)"/>
</clipPath>
</defs>
</svg>
