<svg width="32" height="32" viewBox="0 0 32 32" fill="none" xmlns="http://www.w3.org/2000/svg">
<g clip-path="url(#clip0_54_209)">
<path d="M30 28H2.00001C0.895398 28 0 27.1046 0 26C0 24.8955 0.895398 24 2.00001 24H30.0001C31.1046 24 32.0001 24.8955 32.0001 26C32 27.1046 31.1046 28 30 28Z" fill="white"/>
<path d="M30 18H2.00001C0.895398 18 0 17.1046 0 16C0 14.8955 0.895398 14 2.00001 14H30.0001C31.1046 14 32.0001 14.8954 32.0001 16C32.0001 17.1046 31.1046 18 30 18Z" fill="white"/>
<path d="M30 8.00003H2.00001C0.895398 8.00003 0 7.10463 0 6.00001C0 4.8954 0.895398 4 2.00001 4H30.0001C31.1046 4 32.0001 4.8954 32.0001 6.00001C32.0001 7.10463 31.1046 8.00003 30 8.00003Z" fill="white"/>
</g>
<defs>
<clipPath id="clip0_54_209">
<rect width="32" height="32" fill="white"/>
</clipPath>
</defs>
</svg>
