<svg width="32" height="32" viewBox="0 0 32 32" fill="none" xmlns="http://www.w3.org/2000/svg">
<path d="M15.9751 0C10.7849 0 6.5625 4.22241 6.5625 9.4126V22.5874C6.5625 27.7776 10.7849 32 15.9751 32C21.1653 32 25.3877 27.7776 25.3877 22.5874V9.4126C25.3877 4.22241 21.1653 0 15.9751 0ZM23.4678 22.5874C23.4678 26.7187 20.1064 30.0801 15.9751 30.0801C11.8437 30.0801 8.48242 26.7187 8.48242 22.5874V9.4126C8.48242 5.28125 11.8437 1.91992 15.9751 1.91992C20.1064 1.91992 23.4678 5.28125 23.4678 9.4126V22.5874Z" fill="white"/>
<path d="M15.9753 6.36572C15.4451 6.36572 15.0154 6.79541 15.0154 7.32568V11.7441C15.0154 12.2742 15.4451 12.7041 15.9753 12.7041C16.5054 12.7041 16.9353 12.2742 16.9353 11.7441V7.32568C16.9353 6.79541 16.5056 6.36572 15.9753 6.36572Z" fill="white"/>
</svg>
